<svg width="48" height="48" viewBox="0 0 48 48" fill="none" xmlns="http://www.w3.org/2000/svg"><circle cx="24" cy="24" r="24" fill="#C3E5CD" /><path d="M24 14C18.49 14 14 18.49 14 24C14 29.51 18.49 34 24 34C29.51 34 34 29.51 34 24C34 18.49 29.51 14 24 14ZM28.78 21.7L23.11 27.37C22.97 27.51 22.78 27.59 22.58 27.59C22.38 27.59 22.19 27.51 22.05 27.37L19.22 24.54C18.93 24.25 18.93 23.77 19.22 23.48C19.51 23.19 19.99 23.19 20.28 23.48L22.58 25.78L27.72 20.64C28.01 20.35 28.49 20.35 28.78 20.64C29.07 20.93 29.07 21.4 28.78 21.7Z" fill="#17A63F" /></svg>