<svg width="142" height="48" viewBox="0 0 142 48" fill="none" xmlns="http://www.w3.org/2000/svg">
<path fill-rule="evenodd" clip-rule="evenodd" d="M24.453 9.79556V12.2453C24.453 13.5751 23.3965 14.656 22.0775 14.6951H22.0102H12.2283C8.17582 14.6951 4.89273 17.984 4.89273 22.0409C4.89273 26.0978 8.17582 29.3867 12.2283 29.3867C16.2807 29.3867 19.5638 26.0978 19.5638 22.0409V19.5911V19.5236C19.5993 18.2044 20.6806 17.1449 22.0066 17.1449C23.3326 17.1449 24.414 18.2044 24.4495 19.5236V19.5911V35.7547C24.4495 42.5173 18.9753 48 12.2247 48C5.47418 48 0 42.5173 0 35.7547V35.6871C0.0354545 34.368 1.11682 33.3084 2.44282 33.3084C3.76882 33.3084 4.85018 34.368 4.88564 35.6871V35.7547C4.88564 39.8116 8.16873 43.1004 12.2212 43.1004C16.2736 43.1004 19.5567 39.8116 19.5567 35.7547V31.8364C17.5145 33.3724 14.9725 34.2862 12.2212 34.2862C5.47418 34.2862 0 28.8036 0 22.0409C0 15.2782 5.47418 9.79556 12.2247 9.79556H24.453ZM39.6098 9.79556C46.3604 9.79556 51.8345 15.2782 51.8345 22.0409C51.8345 22.88 51.7494 23.6978 51.5899 24.4907H32.6926C33.6995 27.3458 36.4154 29.3867 39.6098 29.3867C41.6201 29.3867 43.446 28.5796 44.772 27.2676C45.2116 26.8373 45.8144 26.5707 46.4809 26.5707C47.8317 26.5707 48.9273 27.6658 48.9273 29.0204C48.9273 29.7707 48.5905 30.4391 48.0622 30.8871C45.8675 32.992 42.8894 34.2827 39.6098 34.2827C32.8593 34.2827 27.3851 28.8 27.3851 22.0373C27.3851 15.2747 32.8593 9.79556 39.6098 9.79556ZM102.208 9.79556C108.959 9.79556 114.433 15.2782 114.433 22.0409C114.433 22.88 114.348 23.6978 114.188 24.4907H95.2912C96.2981 27.3458 99.0139 29.3867 102.208 29.3867C104.219 29.3867 106.045 28.5796 107.371 27.2676C107.81 26.8373 108.413 26.5707 109.079 26.5707C110.43 26.5707 111.526 27.6658 111.526 29.0204C111.526 29.7707 111.189 30.4391 110.661 30.8871C108.466 32.992 105.488 34.2827 102.208 34.2827C95.4578 34.2827 89.9836 28.8 89.9836 22.0373C89.9836 15.2747 95.4543 9.79556 102.208 9.79556ZM87.048 0V31.8364C87.048 33.1876 85.9524 34.2862 84.6016 34.2862C83.2508 34.2862 82.1553 33.1911 82.1553 31.8364C80.1131 33.3724 77.571 34.2862 74.8197 34.2862C68.0692 34.2862 62.595 28.8036 62.595 22.0409C62.595 15.2782 68.0692 9.79556 74.8197 9.79556C77.571 9.79556 80.1131 10.7058 82.1553 12.2453V2.44978C82.1553 1.09867 83.2508 0 84.6016 0L87.048 0ZM141.818 9.79556V31.8364C141.818 33.1876 140.723 34.2862 139.372 34.2862C138.021 34.2862 136.925 33.1911 136.925 31.8364C134.883 33.3724 132.341 34.2862 129.59 34.2862C122.839 34.2862 117.365 28.8036 117.365 22.0409C117.365 15.2782 122.839 9.79556 129.59 9.79556C132.341 9.79556 134.883 10.7058 136.925 12.2453C136.925 10.8942 138.021 9.79556 139.372 9.79556H141.818ZM59.6629 9.79556V31.8364C59.6629 33.1876 58.5674 34.2862 57.2165 34.2862C55.8657 34.2862 54.7702 33.1911 54.7702 31.8364V12.2453C54.7702 10.8942 55.8657 9.79556 57.2165 9.79556H59.6629ZM74.8197 14.6951C70.7673 14.6951 67.4842 17.984 67.4842 22.0409C67.4842 26.0978 70.7673 29.3867 74.8197 29.3867C78.8722 29.3867 82.1553 26.0978 82.1553 22.0409C82.1553 17.984 78.8722 14.6951 74.8197 14.6951ZM129.593 14.6951C125.541 14.6951 122.258 17.984 122.258 22.0409C122.258 26.0978 125.541 29.3867 129.593 29.3867C133.646 29.3867 136.929 26.0978 136.929 22.0409C136.929 17.984 133.642 14.6951 129.593 14.6951ZM39.6098 14.6951C36.4154 14.6951 33.6995 16.7396 32.6926 19.5947H46.527C45.5236 16.7396 42.8043 14.6951 39.6098 14.6951ZM102.208 14.6951C99.0139 14.6951 96.2981 16.7396 95.2912 19.5947H109.126C108.119 16.7396 105.399 14.6951 102.208 14.6951ZM57.2165 2.44978C58.5674 2.44978 59.6629 3.54489 59.6629 4.89956C59.6629 6.25067 58.5674 7.34933 57.2165 7.34933C55.8657 7.34933 54.7702 6.25422 54.7702 4.89956C54.7702 3.54489 55.8657 2.44978 57.2165 2.44978Z" fill="#FF4D00"/>
</svg>
