<svg width="25" height="32" viewBox="0 0 25 32" fill="none" xmlns="http://www.w3.org/2000/svg">
<path fill-rule="evenodd" clip-rule="evenodd" d="M24.6624 19.7966V0H12.3312C5.52164 0 0 5.46441 0 12.2034V19.7966C0 26.5356 5.52164 32 12.3312 32C19.1408 32 24.6624 26.5356 24.6624 19.7966ZM12.3312 5.42373H19.1819V6.82034C19.1682 7.53899 18.579 8.10847 17.8529 8.13559H12.2627C10.0294 8.17627 8.22081 9.97966 8.22081 12.2034C8.22081 14.4542 10.0568 16.2712 12.3312 16.2712C14.6056 16.2712 16.4416 14.4542 16.4416 12.2034V10.7661C16.4827 10.061 17.0856 9.49153 17.8117 9.49153C18.5516 9.49153 19.1682 10.0746 19.1819 10.8068V19.9051C19.1271 23.6068 16.0717 26.5763 12.3312 26.5763C8.54964 26.5763 5.48054 23.539 5.48054 19.7966V19.7153C5.52164 19.0102 6.1245 18.4407 6.85067 18.4407C7.59054 18.4407 8.2071 19.0237 8.22081 19.7559V19.8644C8.26191 22.0746 10.0842 23.8644 12.3312 23.8644C14.6056 23.8644 16.4416 22.0475 16.4416 19.7966V17.6271L16.3731 17.6814C15.2496 18.4949 13.8384 18.9831 12.3312 18.9831C8.54964 18.9831 5.48054 15.9458 5.48054 12.2034C5.48054 8.46101 8.54964 5.42373 12.3312 5.42373Z" fill="#FF4D00"/>
</svg>
